<svg width="533" height="512" viewBox="0 0 533 512" fill="none" xmlns="http://www.w3.org/2000/svg">
<path d="M472.08 41.5201H394.24V19.1221C394.24 9.04409 385.842 0.64209 375.76 0.64209C365.682 0.64209 357.28 9.04049 357.28 19.1221V41.5201H175.28V19.1221C175.28 9.04409 166.882 0.64209 156.8 0.64209C146.722 0.64209 138.32 9.04049 138.32 19.1221V41.5201H59.922C26.883 41.5201 0 68.3991 0 101.442V452.002C0 485.041 26.879 511.924 59.922 511.924H472.082C505.121 511.924 532.004 485.045 532.004 452.002L532 100.882C532 68.4021 505.121 41.5231 472.078 41.5231L472.08 41.5201ZM495.041 451.44C495.041 463.76 484.963 473.838 472.08 473.838H59.92C47.6 473.838 36.959 463.76 36.959 451.44V214H494.479V451.44H495.041ZM495.041 176.48H36.961V100.878C36.961 88.5581 47.039 78.4801 59.922 78.4801H137.762V100.878C137.762 110.956 146.16 119.358 156.242 119.358C166.32 119.358 174.722 110.96 174.722 100.878V78.4801H356.722V100.878C356.722 110.956 365.12 119.358 375.202 119.358C385.28 119.358 393.682 110.96 393.682 100.878V78.4801H471.522C483.842 78.4801 494.483 88.5581 494.483 100.878L494.479 176.48H495.041Z" fill="black"/>
<path d="M234.08 413.92C237.439 417.842 242.478 420.08 247.521 420.08C252.56 420.08 257.599 417.842 260.962 413.92L361.762 306.4C369.043 299.119 368.481 287.361 360.641 280.08C353.36 273.361 341.602 273.361 334.321 281.201L247.52 374.158L201.04 324.318C193.759 317.037 182.56 316.478 174.72 323.197C167.439 330.478 166.88 342.236 173.599 349.517L234.08 413.92Z" fill="black"/>
</svg>
