<?xml version="1.0" standalone="no"?>
<!DOCTYPE svg PUBLIC "-//W3C//DTD SVG 20010904//EN"
 "http://www.w3.org/TR/2001/REC-SVG-20010904/DTD/svg10.dtd">
<svg version="1.0" xmlns="http://www.w3.org/2000/svg"
 width="136.000000pt" height="131.000000pt" viewBox="0 0 136.000000 131.000000"
 preserveAspectRatio="xMidYMid meet">

<g transform="translate(0.000000,131.000000) scale(0.100000,-0.100000)"
fill="#000000" stroke="none">
<path d="M424 1243 c-89 -141 -71 -127 -183 -152 -68 -15 -104 -28 -110 -39
-5 -10 -5 -59 1 -120 l9 -102 -71 -80 c-38 -44 -70 -87 -70 -95 0 -15 35 -60
103 -131 l39 -42 -10 -103 c-6 -60 -6 -111 -1 -121 6 -10 44 -24 111 -40 l102
-23 56 -90 c43 -70 61 -91 81 -93 14 -2 64 15 112 37 l88 40 87 -40 c48 -22
98 -39 111 -37 20 2 38 23 81 93 l56 90 102 23 c70 16 105 29 112 41 5 11 5
56 -1 120 l-10 101 70 81 c39 44 71 86 71 94 0 15 -35 60 -103 132 l-40 41 11
103 c7 64 7 109 2 120 -7 12 -42 25 -112 41 l-102 23 -56 90 c-43 70 -61 91
-81 93 -13 2 -64 -15 -113 -36 l-89 -40 -84 39 c-115 53 -125 52 -169 -18z
m616 -345 c0 -2 7 -61 15 -133 8 -71 13 -130 12 -131 -1 -1 -26 -8 -55 -17
l-53 -15 -23 46 -23 46 4 -50 5 -51 -48 -13 c-27 -7 -52 -13 -57 -14 -7 -1
-101 200 -109 233 -2 8 13 18 39 26 l42 12 20 -48 c12 -26 21 -52 21 -58 0 -5
3 -12 8 -14 4 -3 6 25 4 63 l-4 68 31 10 31 11 35 -67 c26 -49 34 -59 31 -37
-20 123 -21 113 16 124 33 9 58 13 58 9z m-350 -118 c0 -16 0 -33 1 -37 0 -5
-17 -13 -38 -19 -21 -6 -38 -16 -38 -22 0 -15 7 -15 46 -7 22 5 34 3 40 -6 19
-30 9 -48 -30 -60 -25 -7 -38 -16 -35 -24 4 -10 15 -10 54 0 l49 13 10 -31 c6
-16 9 -32 7 -35 -7 -6 -178 -54 -182 -50 -8 9 -66 249 -61 254 5 6 148 50 170
53 4 1 7 -12 7 -29z m-211 -72 c6 -24 21 -82 35 -130 l24 -88 -40 -10 c-38
-11 -42 -9 -85 26 -34 28 -44 32 -40 18 23 -77 23 -78 -33 -89 l-35 -6 -29
113 c-16 62 -31 120 -33 129 -3 10 7 19 34 27 36 11 39 10 85 -29 l47 -40 -14
48 c-8 26 -13 48 -12 49 2 2 68 22 78 23 4 1 12 -18 18 -41z"/>
</g>
</svg>
