<svg width="100" height="97" viewBox="0 0 100 97" fill="none" xmlns="http://www.w3.org/2000/svg">
<path fill-rule="evenodd" clip-rule="evenodd" d="M31.6086 72.9527C29.9002 72.9527 28.5102 74.3452 28.5102 76.0566C28.5102 77.7681 29.9002 79.1604 31.6086 79.1604C33.3171 79.1604 34.7069 77.7681 34.7069 76.0566C34.7069 74.3452 33.3171 72.9527 31.6086 72.9527ZM51.9608 78.6098H80.0794V62.163H51.9608V78.6098ZM82.0402 58.2346H50C48.9173 58.2346 48.0392 59.114 48.0392 60.1989V80.5741C48.0392 81.6589 48.9173 82.5383 50 82.5383H82.0402C83.1231 82.5383 84.001 81.6589 84.001 80.5741V60.1989C84.001 59.114 83.1231 58.2346 82.0402 58.2346ZM96.0784 41.8356C96.0784 44.7147 94.4841 47.2266 92.1343 48.5352C92.0235 48.5969 91.9118 48.656 91.7984 48.7118C91.7824 48.7197 91.7669 48.7285 91.7508 48.7362C91.6145 48.802 91.4763 48.8629 91.3365 48.9204C91.3096 48.9316 91.282 48.942 91.2547 48.9528C91.1339 49.0012 91.0122 49.0463 90.8892 49.0882C90.8655 49.0962 90.8418 49.1045 90.8178 49.1123C90.5188 49.2107 90.2143 49.2913 89.9055 49.3522C89.8971 49.3538 89.8886 49.3549 89.8802 49.3567C89.7416 49.3836 89.6018 49.4058 89.4616 49.4249C89.4275 49.4296 89.3931 49.4339 89.3588 49.438C89.2402 49.4526 89.121 49.4638 89.0014 49.4728C88.9633 49.4757 88.9257 49.4793 88.8875 49.4816C88.7359 49.4907 88.5837 49.4964 88.4314 49.4964C88.3124 49.4964 88.1939 49.4926 88.0763 49.4873C88.0286 49.485 87.9814 49.4816 87.9339 49.4783C87.8673 49.4742 87.801 49.4691 87.7349 49.4632C87.6716 49.4573 87.6084 49.4508 87.5455 49.4433C87.5027 49.4384 87.4602 49.4327 87.4176 49.4268C87.3382 49.4162 87.2588 49.4052 87.1798 49.3921C87.1774 49.3917 87.1749 49.3913 87.1725 49.3907C85.158 49.0505 83.3676 47.9078 82.1982 46.2655C82.1751 46.2327 82.1514 46.2003 82.1284 46.1671C82.0941 46.117 82.0608 46.0657 82.0273 46.0147C81.9971 45.9683 81.9669 45.9219 81.9376 45.8746C81.9086 45.8281 81.88 45.7811 81.852 45.7338C81.82 45.6798 81.7888 45.6253 81.7582 45.5705C81.7337 45.5267 81.7088 45.4827 81.6851 45.4385C81.6518 45.3759 81.62 45.3124 81.5882 45.2488C81.5686 45.2099 81.5482 45.1712 81.5296 45.1317C81.4826 45.0329 81.4373 44.9333 81.3939 44.8324C81.3741 44.785 81.3557 44.7367 81.3365 44.6888C81.3135 44.6318 81.2906 44.5748 81.2688 44.5171C81.2463 44.457 81.2253 44.3957 81.2043 44.3346C81.1888 44.29 81.1733 44.2456 81.1588 44.2004C81.1367 44.1319 81.1155 44.0628 81.0953 43.993C80.8943 43.3083 80.7843 42.5846 80.7843 41.8356V36.9507H96.0784V41.8356ZM91.1992 53.0877V89.8891H40.3396V60.1988C40.3396 59.1141 39.4618 58.2345 38.3788 58.2345H19.1631C18.0804 58.2345 17.2024 59.1141 17.2024 60.1988V89.8891H8.86314V53.1032C8.88667 53.1089 8.91039 53.1126 8.93392 53.1181C9.10804 53.159 9.28392 53.1959 9.46078 53.2287C9.50706 53.2373 9.55353 53.2456 9.5998 53.2536C9.76647 53.2823 9.93431 53.3071 10.1033 53.3287C10.1559 53.3356 10.2084 53.3428 10.2612 53.3487C10.4275 53.3678 10.5949 53.3819 10.7633 53.3937C10.8149 53.3972 10.8665 53.4027 10.9184 53.4055C11.1335 53.4177 11.3504 53.4249 11.5686 53.4249C11.7425 53.4249 11.9157 53.4196 12.0882 53.4118C12.1327 53.4098 12.1775 53.4078 12.222 53.4053C12.3773 53.3962 12.5322 53.3851 12.6861 53.3699C12.7547 53.3633 12.8227 53.3548 12.8914 53.3469C12.9757 53.3371 13.0596 53.3263 13.1433 53.3145C15.9957 52.9238 18.5186 51.4885 20.3167 49.406C20.3178 49.4048 20.3186 49.4038 20.3196 49.4027C20.472 49.2261 20.62 49.0456 20.7618 48.8597C20.7625 48.8588 20.7633 48.858 20.7639 48.857C20.82 48.7835 20.8747 48.7089 20.929 48.634C20.9724 48.5747 21.0149 48.5144 21.0571 48.4539C21.0969 48.3969 21.1378 48.341 21.1765 48.2832C21.2151 48.3408 21.2559 48.3966 21.2955 48.4535C21.338 48.5142 21.3806 48.5747 21.4243 48.6344C21.4782 48.7091 21.5325 48.7831 21.5886 48.8564C21.5908 48.8595 21.5931 48.8621 21.5955 48.8652C21.7355 49.0485 21.8814 49.2265 22.0316 49.4009C22.0335 49.4031 22.0357 49.4054 22.0376 49.4078C23.8357 51.4893 26.358 52.9238 29.2094 53.3145C29.2933 53.3263 29.3773 53.3371 29.4618 53.3469C29.5302 53.3548 29.5982 53.3633 29.6669 53.3699C29.8208 53.3851 29.9757 53.3962 30.131 53.4053C30.1755 53.4078 30.2202 53.4098 30.2647 53.4118C30.4373 53.4196 30.6104 53.4249 30.7843 53.4249C30.9582 53.4249 31.1314 53.4196 31.3039 53.4118C31.3484 53.4098 31.3931 53.4078 31.4376 53.4053C31.5929 53.3962 31.7478 53.3851 31.9018 53.3699C31.9704 53.3633 32.0384 53.3548 32.1071 53.3469C32.1914 53.3371 32.2753 53.3263 32.359 53.3145C35.2114 52.9238 37.7343 51.4885 39.5324 49.406C39.5335 49.4048 39.5343 49.4038 39.5353 49.4027C39.6876 49.2261 39.8357 49.0456 39.9775 48.8597C39.9782 48.8588 39.979 48.858 39.9796 48.857C40.0357 48.7835 40.0904 48.7089 40.1447 48.634C40.188 48.5747 40.2306 48.5144 40.2727 48.4539C40.3125 48.3969 40.3535 48.341 40.3922 48.2832C40.4308 48.3408 40.4716 48.3966 40.5112 48.4535C40.5537 48.5142 40.5963 48.5747 40.64 48.6344C40.6939 48.7091 40.7482 48.7831 40.8043 48.8564C40.8065 48.8595 40.8088 48.8621 40.8112 48.8652C40.9512 49.0485 41.0971 49.2265 41.2473 49.4009C41.2492 49.4031 41.2514 49.4054 41.2533 49.4078C43.0514 51.4893 45.5737 52.9238 48.4251 53.3145C48.509 53.3263 48.5929 53.3371 48.6775 53.3469C48.7459 53.3548 48.8139 53.3633 48.8825 53.3699C49.0365 53.3851 49.1914 53.3962 49.3467 53.4053C49.3912 53.4078 49.4359 53.4098 49.4804 53.4118C49.6529 53.4196 49.8261 53.4249 50 53.4249C50.1739 53.4249 50.3471 53.4196 50.5196 53.4118C50.5641 53.4098 50.6088 53.4078 50.6533 53.4053C50.8086 53.3962 50.9635 53.3851 51.1175 53.3699C51.1861 53.3633 51.2541 53.3548 51.3227 53.3469C51.4071 53.3371 51.491 53.3263 51.5747 53.3145C54.4271 52.9238 56.95 51.4885 58.748 49.406C58.7492 49.4048 58.75 49.4038 58.751 49.4027C58.9033 49.2261 59.0514 49.0456 59.1931 48.8597C59.1939 48.8588 59.1947 48.858 59.1953 48.857C59.2514 48.7835 59.3061 48.7089 59.3604 48.634C59.4037 48.5747 59.4463 48.5144 59.4884 48.4539C59.5282 48.3969 59.5692 48.341 59.6078 48.2832C59.6465 48.3408 59.6873 48.3966 59.7269 48.4535C59.7694 48.5142 59.812 48.5747 59.8557 48.6344C59.9096 48.7091 59.9639 48.7831 60.02 48.8564C60.0222 48.8595 60.0245 48.8621 60.0269 48.8652C60.1669 49.0485 60.3127 49.2265 60.4629 49.4009C60.4649 49.4031 60.4671 49.4054 60.469 49.4078C62.2671 51.4893 64.7894 52.9238 67.6408 53.3145C67.7247 53.3263 67.8086 53.3371 67.8931 53.3469C67.9616 53.3548 68.0296 53.3633 68.0982 53.3699C68.2522 53.3851 68.4071 53.3962 68.5624 53.4053C68.6069 53.4078 68.6516 53.4098 68.6961 53.4118C68.8686 53.4196 69.0418 53.4249 69.2157 53.4249C69.3896 53.4249 69.5627 53.4196 69.7353 53.4118C69.7798 53.4098 69.8245 53.4078 69.869 53.4053C70.0243 53.3962 70.1792 53.3851 70.3331 53.3699C70.4018 53.3633 70.4698 53.3548 70.5384 53.3469C70.6227 53.3371 70.7067 53.3263 70.7904 53.3145C73.6427 52.9238 76.1657 51.4885 77.9637 49.406C77.9649 49.4048 77.9657 49.4038 77.9667 49.4027C78.119 49.2261 78.2671 49.0456 78.4088 48.8597C78.4096 48.8588 78.4104 48.858 78.411 48.857C78.4671 48.7835 78.5218 48.7089 78.5761 48.634C78.6194 48.5747 78.662 48.5144 78.7041 48.4539C78.7439 48.3969 78.7849 48.341 78.8235 48.2832C78.8622 48.3408 78.9029 48.3966 78.9426 48.4535C78.9851 48.5142 79.0276 48.5747 79.0714 48.6344C79.1253 48.7091 79.1796 48.7831 79.2357 48.8564C79.2378 48.8595 79.2402 48.8621 79.2425 48.8652C79.3825 49.0485 79.5284 49.2265 79.6786 49.4009C79.6806 49.4031 79.6827 49.4054 79.6847 49.4078C81.4827 51.4893 84.0051 52.9238 86.8565 53.3145C86.9404 53.3263 87.0243 53.3371 87.1088 53.3469C87.1773 53.3548 87.2453 53.3633 87.3139 53.3699C87.4678 53.3851 87.6227 53.3962 87.778 53.4053C87.8225 53.4078 87.8673 53.4098 87.9118 53.4118C88.0843 53.4196 88.2575 53.4249 88.4314 53.4249C88.6531 53.4249 88.8729 53.4173 89.0916 53.4047C89.1457 53.4018 89.1996 53.3963 89.2535 53.3923C89.4239 53.3803 89.5935 53.3652 89.7618 53.346C89.8155 53.3397 89.8686 53.3324 89.9224 53.3253C90.0982 53.3026 90.2729 53.276 90.4461 53.2454C90.4874 53.2379 90.5288 53.2309 90.5702 53.2232C90.7722 53.1851 90.972 53.1425 91.17 53.0939C91.1796 53.0918 91.1894 53.09 91.1992 53.0877ZM21.1239 89.8889H36.418V62.1631H21.1239V89.8889ZM3.92157 36.9507H19.2157V41.8356C19.2157 42.5819 19.1065 43.3026 18.9073 43.985C18.8855 44.0594 18.8627 44.1333 18.8388 44.2067C18.8265 44.2454 18.8131 44.2837 18.8 44.322C18.7771 44.389 18.7539 44.456 18.7294 44.522C18.7118 44.5689 18.6925 44.6151 18.6741 44.6619C18.6443 44.7371 18.6137 44.8119 18.5816 44.886C18.5463 44.9673 18.5102 45.048 18.4724 45.128C18.4502 45.1743 18.4265 45.2199 18.4031 45.2657C18.3751 45.3219 18.3467 45.3782 18.3173 45.4336C18.2912 45.4827 18.2639 45.5309 18.2369 45.5794C18.2086 45.6291 18.1806 45.6788 18.1514 45.7279C18.121 45.7791 18.0902 45.83 18.0588 45.8805C18.0324 45.9229 18.0051 45.9648 17.978 46.0064C17.942 46.0618 17.9059 46.117 17.8686 46.1712C17.85 46.1983 17.8306 46.2246 17.8118 46.2514C16.6425 47.9016 14.8471 49.0501 12.8263 49.3909C12.8243 49.3913 12.8225 49.3917 12.8204 49.3921C12.7412 49.4052 12.6616 49.4162 12.582 49.427C12.5394 49.4327 12.4973 49.4384 12.4547 49.4431C12.3916 49.4508 12.3284 49.4573 12.2649 49.4632C12.199 49.4691 12.1327 49.4742 12.0663 49.4783C12.0188 49.4816 11.9714 49.485 11.9237 49.4873C11.8059 49.4926 11.6876 49.4964 11.5686 49.4964C11.4178 49.4964 11.2676 49.4909 11.1175 49.482C11.0792 49.4797 11.041 49.4759 11.0025 49.4732C10.8865 49.4645 10.771 49.4537 10.6553 49.4398C10.6184 49.4353 10.5818 49.4307 10.5453 49.4258C10.4178 49.4086 10.2908 49.3883 10.1647 49.3647C10.1443 49.361 10.1237 49.3577 10.1033 49.3536C9.80353 49.2952 9.50784 49.2182 9.21765 49.1241C9.18569 49.1141 9.15431 49.1027 9.12255 49.0921C9.01588 49.0562 8.91 49.0175 8.8051 48.9766C8.76118 48.9595 8.71706 48.9424 8.67353 48.9246C8.57706 48.8851 8.48176 48.8426 8.38686 48.799C8.34529 48.78 8.30294 48.7621 8.26176 48.7423C8.14157 48.6845 8.02333 48.6228 7.90627 48.5588C5.53392 47.2567 3.92157 44.7314 3.92157 41.8356V36.9507ZM32.0361 49.3921C31.9569 49.4052 31.8773 49.4162 31.7976 49.427C31.7551 49.4327 31.7129 49.4384 31.6704 49.4431C31.6073 49.4508 31.5441 49.4573 31.4806 49.4632C31.4147 49.4691 31.3484 49.4742 31.282 49.4783C31.2345 49.4816 31.1871 49.485 31.1394 49.4873C31.0216 49.4926 30.9033 49.4964 30.7843 49.4964C30.6653 49.4964 30.5469 49.4926 30.4292 49.4873C30.3816 49.485 30.3343 49.4816 30.2869 49.4783C30.2202 49.4742 30.1539 49.4691 30.0878 49.4632C30.0245 49.4573 29.9614 49.4508 29.8984 49.4433C29.8557 49.4384 29.8131 49.4327 29.7706 49.4268C29.6912 49.4162 29.6118 49.4052 29.5327 49.3921C29.5304 49.3917 29.5278 49.3913 29.5255 49.3907C27.511 49.0505 25.7206 47.9078 24.5512 46.2655C24.528 46.2327 24.5043 46.2003 24.4814 46.1671C24.4471 46.117 24.4137 46.0657 24.3802 46.0147C24.35 45.9683 24.3198 45.9219 24.2906 45.8746C24.2616 45.8281 24.2329 45.7811 24.2049 45.7338C24.1729 45.6798 24.1418 45.6253 24.1112 45.5705C24.0867 45.5267 24.0618 45.4827 24.038 45.4385C24.0047 45.3759 23.9729 45.3124 23.9412 45.2488C23.9216 45.2099 23.9012 45.1712 23.8825 45.1317C23.8355 45.0329 23.7902 44.9333 23.7469 44.8324C23.7271 44.785 23.7086 44.7367 23.6894 44.6888C23.6665 44.6318 23.6435 44.5748 23.6218 44.5171C23.5992 44.457 23.5782 44.3957 23.5573 44.3346C23.5418 44.29 23.5263 44.2456 23.5118 44.2004C23.4896 44.1319 23.4684 44.0628 23.4482 43.993C23.2473 43.3083 23.1373 42.5846 23.1373 41.8356V36.9507H38.4314V41.8356C38.4314 42.5819 38.3222 43.3026 38.1229 43.985C38.1012 44.0594 38.0784 44.1333 38.0545 44.2067C38.0422 44.2454 38.0288 44.2837 38.0157 44.322C37.9927 44.389 37.9696 44.456 37.9451 44.522C37.9275 44.5689 37.9082 44.6151 37.8898 44.6619C37.86 44.7371 37.8294 44.8119 37.7973 44.886C37.762 44.9673 37.7259 45.048 37.688 45.128C37.6659 45.1743 37.6422 45.2199 37.6188 45.2657C37.5908 45.3219 37.5624 45.3782 37.5329 45.4336C37.5069 45.4827 37.4796 45.5309 37.4525 45.5794C37.4243 45.6291 37.3963 45.6788 37.3671 45.7279C37.3367 45.7791 37.3059 45.83 37.2745 45.8805C37.248 45.9229 37.2208 45.9648 37.1937 46.0064C37.1576 46.0618 37.1216 46.117 37.0843 46.1712C37.0657 46.1983 37.0463 46.2246 37.0275 46.2514C35.8582 47.9016 34.0627 49.0501 32.042 49.3909C32.04 49.3913 32.0382 49.3917 32.0361 49.3921ZM51.2518 49.3921C51.1726 49.4052 51.0929 49.4162 51.0133 49.427C50.9708 49.4327 50.9286 49.4384 50.8861 49.4431C50.8229 49.4508 50.7598 49.4573 50.6963 49.4632C50.6304 49.4691 50.5641 49.4742 50.4976 49.4783C50.4502 49.4816 50.4027 49.485 50.3551 49.4873C50.2373 49.4926 50.119 49.4964 50 49.4964C49.881 49.4964 49.7625 49.4926 49.6449 49.4873C49.5973 49.485 49.55 49.4816 49.5025 49.4783C49.4359 49.4742 49.3696 49.4691 49.3035 49.4632C49.2402 49.4573 49.1771 49.4508 49.1141 49.4433C49.0714 49.4384 49.0288 49.4327 48.9863 49.4268C48.9069 49.4162 48.8275 49.4052 48.7484 49.3921C48.7461 49.3917 48.7435 49.3913 48.7412 49.3907C46.7267 49.0505 44.9363 47.9078 43.7669 46.2655C43.7437 46.2327 43.72 46.2003 43.6971 46.1671C43.6627 46.117 43.6294 46.0657 43.5959 46.0147C43.5657 45.9683 43.5355 45.9219 43.5063 45.8746C43.4773 45.8281 43.4486 45.7811 43.4206 45.7338C43.3886 45.6798 43.3575 45.6253 43.3269 45.5705C43.3024 45.5267 43.2775 45.4827 43.2537 45.4385C43.2204 45.3759 43.1886 45.3124 43.1569 45.2488C43.1373 45.2099 43.1169 45.1712 43.0982 45.1317C43.0512 45.0329 43.0059 44.9333 42.9625 44.8324C42.9427 44.785 42.9243 44.7367 42.9051 44.6888C42.8822 44.6318 42.8592 44.5748 42.8375 44.5171C42.8149 44.457 42.7939 44.3957 42.7729 44.3346C42.7575 44.29 42.742 44.2456 42.7275 44.2004C42.7053 44.1319 42.6841 44.0628 42.6639 43.993C42.4629 43.3083 42.3529 42.5846 42.3529 41.8356V36.9507H57.6471V41.8356C57.6471 42.5819 57.5378 43.3026 57.3386 43.985C57.3169 44.0594 57.2941 44.1333 57.2702 44.2067C57.2578 44.2454 57.2445 44.2837 57.2314 44.322C57.2084 44.389 57.1853 44.456 57.1608 44.522C57.1431 44.5689 57.1239 44.6151 57.1055 44.6619C57.0757 44.7371 57.0451 44.8119 57.0129 44.886C56.9776 44.9673 56.9416 45.048 56.9037 45.128C56.8816 45.1743 56.8578 45.2199 56.8345 45.2657C56.8065 45.3219 56.778 45.3782 56.7486 45.4336C56.7225 45.4827 56.6953 45.5309 56.6682 45.5794C56.64 45.6291 56.612 45.6788 56.5827 45.7279C56.5524 45.7791 56.5216 45.83 56.4902 45.8805C56.4637 45.9229 56.4365 45.9648 56.4094 46.0064C56.3733 46.0618 56.3373 46.117 56.3 46.1712C56.2814 46.1983 56.262 46.2246 56.2431 46.2514C55.0739 47.9016 53.2784 49.0501 51.2576 49.3909C51.2557 49.3913 51.2539 49.3917 51.2518 49.3921ZM76.8627 41.8356C76.8627 42.5819 76.7535 43.3026 76.5543 43.985C76.5325 44.0594 76.5098 44.1333 76.4859 44.2067C76.4735 44.2454 76.4602 44.2837 76.4471 44.322C76.4241 44.389 76.401 44.456 76.3765 44.522C76.3588 44.5689 76.3396 44.6151 76.3212 44.6619C76.2914 44.7371 76.2608 44.8119 76.2286 44.886C76.1933 44.9673 76.1573 45.048 76.1194 45.128C76.0973 45.1743 76.0735 45.2199 76.0502 45.2657C76.0222 45.3219 75.9937 45.3782 75.9643 45.4336C75.9382 45.4827 75.911 45.5309 75.8839 45.5794C75.8557 45.6291 75.8276 45.6788 75.7984 45.7279C75.768 45.7791 75.7373 45.83 75.7059 45.8805C75.6794 45.9229 75.6522 45.9648 75.6249 46.0064C75.589 46.0618 75.5529 46.117 75.5157 46.1712C75.4971 46.1983 75.4776 46.2246 75.4588 46.2514C74.2896 47.9016 72.4941 49.0501 70.4733 49.3909C70.4714 49.3913 70.4696 49.3917 70.4675 49.3921C70.3882 49.4052 70.3086 49.4162 70.229 49.427C70.1865 49.4327 70.1443 49.4384 70.1018 49.4431C70.0386 49.4508 69.9755 49.4573 69.912 49.4632C69.8461 49.4691 69.7798 49.4742 69.7133 49.4783C69.6659 49.4816 69.6184 49.485 69.5708 49.4873C69.4529 49.4926 69.3347 49.4964 69.2157 49.4964C69.0967 49.4964 68.9782 49.4926 68.8606 49.4873C68.8129 49.485 68.7657 49.4816 68.7182 49.4783C68.6516 49.4742 68.5853 49.4691 68.5192 49.4632C68.4559 49.4573 68.3927 49.4508 68.3298 49.4433C68.2871 49.4384 68.2445 49.4327 68.202 49.4268C68.1225 49.4162 68.0431 49.4052 67.9641 49.3921C67.9618 49.3917 67.9592 49.3913 67.9569 49.3907C65.9424 49.0505 64.152 47.9078 62.9825 46.2655C62.9594 46.2327 62.9357 46.2003 62.9127 46.1671C62.8784 46.117 62.8451 46.0657 62.8116 46.0147C62.7814 45.9683 62.7512 45.9219 62.722 45.8746C62.6929 45.8281 62.6643 45.7811 62.6363 45.7338C62.6043 45.6798 62.5731 45.6253 62.5425 45.5705C62.518 45.5267 62.4931 45.4827 62.4694 45.4385C62.4361 45.3759 62.4043 45.3124 62.3725 45.2488C62.3529 45.2099 62.3326 45.1712 62.3139 45.1317C62.2669 45.0329 62.2216 44.9333 62.1782 44.8324C62.1584 44.785 62.14 44.7367 62.1208 44.6888C62.0978 44.6318 62.0749 44.5748 62.0531 44.5171C62.0306 44.457 62.0096 44.3957 61.9886 44.3346C61.9731 44.29 61.9576 44.2456 61.9431 44.2004C61.921 44.1319 61.8998 44.0628 61.8796 43.993C61.6786 43.3083 61.5686 42.5846 61.5686 41.8356V36.9507H76.8627V41.8356ZM12.9045 19.7015H86.9104L94.6329 33.0221H78.8235H59.6078H40.3922H21.1765H5.33353L12.9045 19.7015ZM13.7255 15.7729H86.4706V9.92857H13.7255V15.7729ZM99.9992 34.9695C99.9984 34.8954 99.9931 34.8226 99.9847 34.7507C99.982 34.7294 99.9782 34.7088 99.9751 34.6878C99.9659 34.6285 99.9545 34.5699 99.94 34.5124C99.9353 34.4926 99.9306 34.4731 99.9249 34.4537C99.9047 34.381 99.8812 34.3097 99.8527 34.2405C99.8516 34.2378 99.8508 34.2352 99.8498 34.2325C99.8188 34.158 99.7829 34.0867 99.7433 34.0174C99.7404 34.0117 99.738 34.0056 99.7347 33.9997L90.3853 17.8729C90.3882 17.8278 90.3922 17.7832 90.3922 17.7372V7.96429C90.3922 6.87961 89.5141 6 88.4314 6H11.7647C10.682 6 9.80392 6.87961 9.80392 7.96429V17.2171L0.256863 34.0144C0.25451 34.0184 0.252941 34.0231 0.250588 34.027C0.211961 34.0962 0.177255 34.1677 0.146863 34.2415C0.142941 34.2515 0.139804 34.2616 0.135882 34.2716C0.111373 34.3344 0.0903922 34.3985 0.0723529 34.4641C0.0668627 34.4837 0.0617647 34.5036 0.0570588 34.5234C0.0429412 34.5821 0.0313725 34.642 0.0227451 34.7027C0.02 34.7214 0.0164706 34.7399 0.0141176 34.7587C0.0054902 34.8336 0 34.9092 0 34.9864V41.8356C0 45.7577 1.95667 49.2284 4.94157 51.3263V91.8534C4.94157 92.9381 5.81961 93.8177 6.90235 93.8177H19.1631H38.3788H93.16C94.2429 93.8177 95.1208 92.9381 95.1208 91.8534V51.2819C98.0704 49.1795 100 45.73 100 41.8356V34.9864V34.9844C100 34.9795 99.9992 34.9744 99.9992 34.9695Z" fill="black"/>
</svg>
