<svg width="491" height="151" viewBox="0 0 491 151" fill="none" xmlns="http://www.w3.org/2000/svg">
<path d="M187.87 5.46997C196.77 5.46997 205.22 9.11996 210.65 15.08L204.69 20.95C201.04 16.95 194.55 13.92 187.87 13.92C175.15 13.92 165.27 24.06 165.27 37.5C165.27 51.56 175.41 61.08 188.67 61.08C197.03 61.08 203.08 56.45 206.55 52.27L212.87 57.96C207.53 64.81 198.28 69.53 188.67 69.53C170.07 69.53 156.37 55.92 156.37 37.5C156.37 19.53 169.9 5.46997 187.87 5.46997Z" fill="#181E4B"/>
<path d="M253.57 64.8199C250.19 67.8499 245.65 69.5399 240.67 69.5399C236.93 69.5399 233.02 68.4699 230.17 66.7799C223.85 63.0399 219.49 56.0999 219.49 47.7399C219.49 39.3799 223.94 32.3499 230.26 28.6099C233.11 26.9199 236.58 25.9399 240.49 25.9399C245.21 25.9399 249.74 27.3599 253.57 30.6599V26.8299H261.76V68.6499H253.57V64.8199V64.8199ZM253.3 39.9099C250.72 36.5299 246.45 33.95 241.38 33.95C233.28 33.95 227.94 40.4499 227.94 47.7399C227.94 55.2099 233.72 61.5299 241.82 61.5299C246.09 61.5299 250.45 59.3899 253.3 55.5699V39.9099Z" fill="#181E4B"/>
<path d="M280.39 30.8299C282.61 28.6899 286.89 25.9399 292.94 25.9399C299.08 25.9399 304.6 28.7899 308.16 33.3299C310.83 36.7099 312.25 40.9799 312.25 48.1899V68.6499H303.8V47.7399C303.8 42.3999 302.82 39.9099 301.31 38.0399C299.35 35.5499 296.15 33.95 292.68 33.95C287.16 33.95 283.16 36.8899 280.67 39.9099V68.6499H272.22V26.8299H280.41V30.8299H280.39Z" fill="#181E4B"/>
<path d="M349.55 68.65C347.95 69.18 345.37 69.54 342.96 69.54C337.71 69.54 333.8 67.67 331.13 64.65C328.64 61.89 327.75 58.07 327.75 53.53V34.4H317.07V26.84H327.75V15.27H336.2V26.84H349.55V34.4H336.2V53.97C336.2 56.19 336.38 58.06 337.45 59.31C338.61 60.73 341.01 61.53 343.23 61.53C344.48 61.53 346.61 61.35 347.86 61L349.55 68.65Z" fill="#181E4B"/>
<path d="M362.43 49.5199C362.88 56.5499 368.66 62.1599 375.96 62.1599C382.19 62.1599 385.57 59.1299 387.97 56.4699L393.49 61.7199C390.38 65.7199 384.41 69.5499 375.87 69.5499C363.68 69.5499 354.25 60.2999 354.25 47.7499C354.25 35.1999 362.79 25.95 374.63 25.95C386.29 25.95 394.74 35.3799 394.74 47.7499C394.74 48.1099 394.74 48.7299 394.65 49.5299H362.43V49.5199ZM363.14 42.3999H385.92C384.67 37.0599 379.87 33.3199 374.89 33.3199C369.46 33.3199 364.56 36.9699 363.14 42.3999Z" fill="#181E4B"/>
<path d="M409.26 49.5199C409.7 56.5499 415.49 62.1599 422.78 62.1599C429.01 62.1599 432.39 59.1299 434.79 56.4699L440.31 61.7199C437.2 65.7199 431.23 69.5499 422.69 69.5499C410.5 69.5499 401.07 60.2999 401.07 47.7499C401.07 35.1999 409.61 25.95 421.45 25.95C433.11 25.95 441.56 35.3799 441.56 47.7499C441.56 48.1099 441.56 48.7299 441.47 49.5299H409.26V49.5199ZM409.97 42.3999H432.75C431.5 37.0599 426.7 33.3199 421.72 33.3199C416.29 33.3199 411.39 36.9699 409.97 42.3999Z" fill="#181E4B"/>
<path d="M459.02 30.8299C461.24 28.6899 465.52 25.9399 471.57 25.9399C477.71 25.9399 483.23 28.7899 486.79 33.3299C489.46 36.7099 490.88 40.9799 490.88 48.1899V68.6499H482.43V47.7399C482.43 42.3999 481.45 39.9099 479.94 38.0399C477.98 35.5499 474.78 33.95 471.31 33.95C465.79 33.95 461.79 36.8899 459.3 39.9099V68.6499H450.85V26.8299H459.04V30.8299H459.02Z" fill="#181E4B"/>
<path d="M202.51 118.12H167.81V147.48H158.91V85.2H167.81V109.67H202.51V85.2H211.41V147.48H202.51V118.12Z" fill="#181E4B"/>
<path d="M225.62 141.34C223.04 138.14 221.79 134.04 221.79 127.01V105.65H230.24V128.34C230.24 132.61 231.13 134.93 232.64 136.7C234.51 138.92 237.53 140.35 240.74 140.35C245.9 140.35 250.08 137.24 252.49 134.39V105.65H260.94V147.47H252.75V143.64C250.88 145.42 246.26 148.36 240.47 148.36C234.52 148.37 229.09 145.7 225.62 141.34Z" fill="#181E4B"/>
<path d="M280.39 147.48H272.2V84.3101H280.65V109.31C284.39 106.2 288.93 104.77 293.46 104.77C297.38 104.77 300.85 105.75 303.69 107.44C310.01 111.18 314.46 118.21 314.46 126.57C314.46 134.93 310.1 141.87 303.78 145.61C300.93 147.3 297.02 148.37 293.28 148.37C288.3 148.37 283.76 146.68 280.38 143.65V147.48H280.39ZM280.65 134.4C283.5 138.23 287.86 140.36 292.13 140.36C300.23 140.36 306.01 134.04 306.01 126.57C306.01 119.27 300.67 112.78 292.57 112.78C287.5 112.78 283.23 115.36 280.65 118.74V134.4Z" fill="#181E4B"/>
<path d="M25.22 0.530029C11.31 0.530029 0.0400391 11.8 0.0400391 25.71V125.3C0.0400391 139.21 11.31 150.48 25.22 150.48C39.13 150.48 50.4 139.21 50.4 125.3V114.26C30.15 113.14 13.86 96.33 14.22 75.83C14.58 55.84 30.53 39.58 50.4 38.73V25.72C50.41 11.8 39.13 0.530029 25.22 0.530029ZM95.69 0.530029C81.78 0.530029 70.5 11.8 70.5 25.71V38.68H94.96C101.44 38.68 106.68 43.93 106.68 50.4C106.68 56.88 101.43 62.12 94.96 62.12H54.7C52.03 62.12 49.85 64.27 49.83 66.95L49.64 85.94C49.61 88.65 51.8 90.86 54.51 90.86H94.96C101.44 90.86 106.68 96.11 106.68 102.58C106.68 109.05 101.43 114.3 94.96 114.3H70.5V125.28C70.5 139.19 81.78 150.46 95.69 150.46C109.6 150.46 120.87 139.19 120.87 125.28V25.69C120.87 11.8 109.59 0.530029 95.69 0.530029Z" fill="url(#paint0_linear_17346_15565)"/>
<defs>
<linearGradient id="paint0_linear_17346_15565" x1="0.132836" y1="135.828" x2="120.774" y2="15.1869" gradientUnits="userSpaceOnUse">
<stop offset="0.2004" stop-color="#804099"/>
<stop offset="0.3059" stop-color="#A13F87"/>
<stop offset="0.4154" stop-color="#BC3E79"/>
<stop offset="0.5243" stop-color="#D13D6D"/>
<stop offset="0.6312" stop-color="#E03D65"/>
<stop offset="0.7351" stop-color="#EA3C60"/>
<stop offset="0.8324" stop-color="#EF3C5E"/>
</linearGradient>
</defs>
</svg>
