<svg width="128" height="40" viewBox="0 0 128 40" fill="none" xmlns="http://www.w3.org/2000/svg">
<path d="M6.56637 0C2.93896 0 0 2.93896 0 6.56637V32.5372C0 36.1646 2.93896 39.1036 6.56637 39.1036C10.1938 39.1036 13.1327 36.1646 13.1327 32.5372V29.6582C7.852 29.3661 3.60394 24.9825 3.69782 19.6365C3.7917 14.4236 7.9511 10.1834 13.1327 9.9617V6.56898C13.1354 2.93896 10.1938 0 6.56637 0ZM24.9434 0C21.3159 0 18.3744 2.93896 18.3744 6.56637V9.94866H24.753C26.4428 9.94866 27.8093 11.3177 27.8093 13.005C27.8093 14.6948 26.4402 16.0613 24.753 16.0613H14.2541C13.5578 16.0613 12.9893 16.622 12.9841 17.3208L12.9346 22.273C12.9267 22.9797 13.4978 23.556 14.2045 23.556H24.753C26.4428 23.556 27.8093 24.9251 27.8093 26.6123C27.8093 28.2996 26.4402 29.6686 24.753 29.6686H18.3744V32.532C18.3744 36.1594 21.3159 39.0984 24.9434 39.0984C28.5708 39.0984 31.5097 36.1594 31.5097 32.532V6.56116C31.5097 2.93896 28.5682 0 24.9434 0Z" fill="url(#paint0_linear_17436_6554)"/>
<path d="M49.554 15H52.104L47.514 2.947H44.794L40.17 15H42.652L43.655 12.246H48.551L49.554 15ZM46.103 5.548L47.769 10.104H44.437L46.103 5.548ZM61.2825 2.692H59.0555V7.469C58.8175 7.027 58.1375 6.432 56.6925 6.432C54.3295 6.432 52.6805 8.353 52.6805 10.801C52.6805 13.334 54.3805 15.204 56.7605 15.204C57.8825 15.204 58.7325 14.694 59.1065 14.031C59.1065 14.422 59.1575 14.83 59.1915 15H61.3505C61.3165 14.66 61.2825 14.048 61.2825 13.487V2.692ZM54.9585 10.801C54.9585 9.305 55.8765 8.455 57.0325 8.455C58.1885 8.455 59.0895 9.288 59.0895 10.784C59.0895 12.297 58.1885 13.181 57.0325 13.181C55.8425 13.181 54.9585 12.297 54.9585 10.801ZM65.9963 15V10.104C65.9963 9.186 66.5743 8.455 67.5603 8.455C68.5803 8.455 69.0393 9.135 69.0393 10.036V15H71.2833V10.104C71.2833 9.203 71.8613 8.455 72.8303 8.455C73.8673 8.455 74.3093 9.135 74.3093 10.036V15H76.5023V9.577C76.5023 7.333 75.0233 6.398 73.4763 6.398C72.3713 6.398 71.4873 6.772 70.8243 7.792C70.3993 6.891 69.4813 6.398 68.3423 6.398C67.4243 6.398 66.3533 6.84 65.8943 7.656V6.636H63.7353V15H65.9963ZM81.0539 15V6.636H78.7929V15H81.0539ZM78.5209 3.899C78.5209 4.647 79.1499 5.276 79.9149 5.276C80.6969 5.276 81.3089 4.647 81.3089 3.899C81.3089 3.117 80.6969 2.488 79.9149 2.488C79.1499 2.488 78.5209 3.117 78.5209 3.899ZM85.7356 10.189C85.7356 9.22 86.3136 8.455 87.2996 8.455C88.3876 8.455 88.8466 9.186 88.8466 10.121V15H91.1076V9.73C91.1076 7.894 90.1556 6.415 88.0816 6.415C87.1806 6.415 86.1776 6.806 85.6676 7.673V6.636H83.4746V15H85.7356V10.189ZM43.74 30.438V26.987H45.593C46.766 26.987 47.48 27.65 47.48 28.721C47.48 29.758 46.766 30.438 45.593 30.438H43.74ZM45.882 32.461C48.262 32.461 49.843 30.897 49.843 28.704C49.843 26.528 48.262 24.947 45.882 24.947H41.377V37H43.723V32.461H45.882ZM54.7423 35.198C53.6373 35.198 52.6173 34.382 52.6173 32.818C52.6173 31.237 53.6373 30.438 54.7423 30.438C55.8473 30.438 56.8673 31.237 56.8673 32.818C56.8673 34.399 55.8473 35.198 54.7423 35.198ZM54.7423 28.381C52.2433 28.381 50.3563 30.234 50.3563 32.818C50.3563 35.385 52.2433 37.255 54.7423 37.255C57.2413 37.255 59.1283 35.385 59.1283 32.818C59.1283 30.234 57.2413 28.381 54.7423 28.381ZM66.0131 28.602C65.8431 28.585 65.6731 28.568 65.4861 28.568C64.7721 28.568 63.6161 28.772 63.1061 29.877V28.636H60.9131V37H63.1741V33.175C63.1741 31.373 64.1771 30.812 65.3331 30.812C65.5371 30.812 65.7581 30.829 66.0131 30.88V28.602ZM70.7235 26.137H68.6835V27.31C68.6835 28.058 68.2755 28.636 67.3915 28.636H66.9665V30.642H68.4795V34.535C68.4795 36.15 69.4995 37.119 71.1315 37.119C71.7945 37.119 72.2025 37 72.4065 36.915V35.045C72.2875 35.079 71.9815 35.113 71.7095 35.113C71.0635 35.113 70.7235 34.875 70.7235 34.144V30.642H72.4065V28.636H70.7235V26.137ZM73.8669 34.722C73.8669 36.031 74.9549 37.238 76.7399 37.238C77.9809 37.238 78.7799 36.66 79.2049 35.997C79.2049 36.32 79.2389 36.779 79.2899 37H81.3639C81.3129 36.711 81.2619 36.116 81.2619 35.674V31.56C81.2619 29.877 80.2759 28.381 77.6239 28.381C75.3799 28.381 74.1729 29.826 74.0369 31.135L76.0429 31.56C76.1109 30.829 76.6549 30.2 77.6409 30.2C78.5929 30.2 79.0519 30.693 79.0519 31.288C79.0519 31.577 78.8989 31.815 78.4229 31.883L76.3659 32.189C74.9719 32.393 73.8669 33.226 73.8669 34.722ZM77.2159 35.555C76.4849 35.555 76.1279 35.079 76.1279 34.586C76.1279 33.94 76.5869 33.617 77.1649 33.532L79.0519 33.243V33.617C79.0519 35.096 78.1679 35.555 77.2159 35.555ZM85.802 37V24.692H83.541V37H85.802Z" fill="#804099"/>
<defs>
<linearGradient id="paint0_linear_17436_6554" x1="0.0241994" y1="35.2827" x2="31.4848" y2="3.82217" gradientUnits="userSpaceOnUse">
<stop offset="0.2004" stop-color="#804099"/>
<stop offset="0.3059" stop-color="#A13F87"/>
<stop offset="0.4154" stop-color="#BC3E79"/>
<stop offset="0.5243" stop-color="#D13D6D"/>
<stop offset="0.6312" stop-color="#E03D65"/>
<stop offset="0.7351" stop-color="#EA3C60"/>
<stop offset="0.8324" stop-color="#EF3C5E"/>
</linearGradient>
</defs>
</svg>
